<svg xmlns="http://www.w3.org/2000/svg" xml:space="preserve" width="10.38677mm" height="10.38677mm" viewBox="0 0 10.38677 10.38677"><circle cx="21.0002" cy="21.000099" r="19.181801" stroke="#000" stroke-width="2" style="fill:none;fill-opacity:1;stroke:#05cbbf;stroke-opacity:1" transform="translate(-.21 -.21)scale(.25733)"/><path d="M163.071 120.544s1.301.646 1.813 1.145c.575.562 1.338 2.006 1.338 2.006s.779-1.5 1.38-2.07c.477-.452 1.696-1.005 1.696-1.005v-2.286s-1.473.777-2.038 1.369c-.461.482-1.04 1.709-1.04 1.709s-.572-1.25-1.04-1.736c-.582-.604-2.109-1.372-2.109-1.372z" style="opacity:1;fill:#05cbbf;fill-opacity:1;stroke:none;stroke-width:.2;stroke-dasharray:none;stroke-opacity:1" transform="translate(-161.051 -115.24)"/><path d="M164.404 117.532s.283.883.567 1.253c.261.34.91.742.91.742v-1.176z" style="opacity:1;fill:#05cbbf;fill-opacity:1;stroke:none;stroke-width:.23596;stroke-dasharray:none;stroke-opacity:1" transform="translate(-161.051 -115.24)"/><path d="M167.935 117.532s-.283.883-.566 1.253c-.262.34-.91.742-.91.742v-1.176z" style="fill:#05cbbf;fill-opacity:1;stroke:none;stroke-width:.23596;stroke-dasharray:none;stroke-opacity:1" transform="translate(-161.051 -115.24)"/></svg>