<svg xmlns="http://www.w3.org/2000/svg" xml:space="preserve" width="10.38677mm" height="10.38677mm" viewBox="0 0 10.38677 10.38677"><g transform="translate(-174.108 -101.952)"><path d="M176.442 105.492s1.052-1.097 1.745-1.33a3.4 3.4 0 0 1 2.117 0c.702.233 1.777 1.33 1.777 1.33v1.464s-1.112-1.33-1.893-1.654c-.57-.236-1.332-.2-1.91.017-.824.307-1.836 1.57-1.836 1.57z" style="opacity:1;fill:#f03d45;fill-opacity:1;stroke:none;stroke-width:.2;stroke-dasharray:none;stroke-opacity:1"/><path d="M176.442 108.975s1.052 1.097 1.745 1.332a3.4 3.4 0 0 0 2.117 0c.702-.234 1.777-1.332 1.777-1.332v-1.463s-1.112 1.33-1.893 1.654c-.57.236-1.332.199-1.91-.017-.824-.307-1.836-1.57-1.836-1.57z" style="fill:#f03d45;fill-opacity:1;stroke:none;stroke-width:.2;stroke-dasharray:none;stroke-opacity:1"/><circle cx="179.30177" cy="107.14513" r="4.9360552" stroke="#000" stroke-width="0.51466" style="fill:none;fill-opacity:1;stroke:#f03d45;stroke-opacity:1"/><circle cx="179.26222" cy="107.22629" r="1.3557439" style="opacity:1;fill:none;fill-opacity:1;stroke:#f03d45;stroke-width:1;stroke-dasharray:none;stroke-opacity:1"/></g></svg>