<svg xmlns="http://www.w3.org/2000/svg" xml:space="preserve" width="10.38677mm" height="10.38677mm" viewBox="0 0 10.38677 10.38677"><g transform="translate(-95.193 -112.159)"><circle cx="100.38683" cy="117.35238" r="4.9360552" stroke="#000" stroke-width="0.51466" style="fill:none;fill-opacity:1;stroke:#ffdb00;stroke-opacity:1"/><path d="m97.897 115.698 1 .628c.388-.449.512-.508 1.09-.7l.35.849.323-.841c.617.121.748.194 1.123.767l.96-.711c-.392-.601-1.348-1.23-2.088-1.258l-.318-.867-.356.867c-.725.13-1.6.621-2.084 1.266" style="opacity:1;fill:#ffdb00;fill-opacity:1;stroke:none;stroke-width:1;stroke-dasharray:none;stroke-opacity:1"/><path d="m103.035 116.13-1.045.552c.195.56.185.697.063 1.293l-.91-.121.566.7c-.414.474-.542.551-1.226.59l.136 1.186c.716-.04 1.739-.553 2.133-1.18l.91.159-.573-.742c.25-.693.262-1.696-.054-2.437M100.055 120.41l.044-1.18c-.582-.112-.695-.19-1.151-.593l.56-.729-.89.14c-.203-.594-.206-.744.103-1.355l-1.095-.475c-.325.64-.391 1.782-.045 2.436l-.593.71.93-.126c.475.562 1.337 1.075 2.137 1.172" style="fill:#ffdb00;fill-opacity:1;stroke:none;stroke-width:1;stroke-dasharray:none;stroke-opacity:1"/></g></svg>