<svg xmlns="http://www.w3.org/2000/svg" xml:space="preserve" width="10.38677mm" height="10.38677mm" viewBox="0 0 10.38677 10.38677"><g transform="translate(-72.231 -103.452)"><path d="m77.075 105.597-3.128 3.034 3.128 3.128v-1.625l-1.181-1.18h-.87s-.228-.047-.224-.285c.003-.237.224-.26.224-.26h.852l1.199-1.222zM77.722 105.597l3.128 3.035-3.128 3.128v-1.626l1.181-1.18h.87s.228-.047.224-.284c-.003-.238-.224-.26-.224-.26h-.852l-1.199-1.222z" style="fill:#ac5aff;fill-opacity:1;stroke:none;stroke-width:1;stroke-dasharray:none;stroke-opacity:1"/><path d="m77.404 108.044-.576.625.576.595.578-.595z" style="fill:#ac5aff;fill-opacity:1;stroke:none;stroke-width:1;stroke-dasharray:none;stroke-opacity:1"/><circle cx="77.424637" cy="108.64546" r="4.9360552" stroke="#000" stroke-width="0.51466" style="fill:none;fill-opacity:1;stroke:#ac5aff;stroke-opacity:1"/></g></svg>