<svg xmlns="http://www.w3.org/2000/svg" xml:space="preserve" width="10.38677mm" height="10.38677mm" viewBox="0 0 10.38677 10.38677"><g style="fill:#e44bf9;fill-opacity:1" transform="translate(-8.4 -110.364)"><circle cx="13.593904" cy="115.55771" r="4.9360552" stroke="#000" stroke-width="0.51466" style="fill:none;fill-opacity:1;stroke:#e44bf9;stroke-opacity:1"/><path d="m10.617 112.978 1.472 1.48s-.34.58-.312 1.225c.037.869.748 1.828 1.857 1.832 1.079.004 1.87-.952 1.902-1.832.022-.626-.386-1.226-.386-1.226l1.43-1.455-.41.734s.682.647.729 1.947c.055 1.523-1.52 3.074-3.265 3.09-1.788.017-3.19-1.63-3.207-3.09-.016-1.242.691-1.977.691-1.977z" style="opacity:1;fill:#e44bf9;fill-opacity:1;stroke:none;stroke-width:1;stroke-dasharray:none;stroke-opacity:1"/><path d="m11.547 113.27 1.062 1.134-.139-.437s.396-.52 1.125-.509c.737.012 1.194.562 1.194.562l-.248.413 1.207-1.133s-.912-.81-2.104-.832c-1.181-.022-2.097.801-2.097.801" style="opacity:1;fill:#e44bf9;fill-opacity:1;stroke:none;stroke-width:1;stroke-dasharray:none;stroke-opacity:1"/><path d="m13.949 113.705-1.497 1.984h1.331l-.678 1.447 1.77-2.117H13.6z" style="opacity:1;fill:#e44bf9;fill-opacity:1;stroke:none;stroke-width:1;stroke-dasharray:none;stroke-opacity:1"/></g></svg>